<?xml version="1.0" encoding="UTF-8"?>
<svg width="11px" height="14px" viewBox="0 0 11 14" version="1.1" xmlns="http://www.w3.org/2000/svg" xmlns:xlink="http://www.w3.org/1999/xlink">
    <!-- Generator: Sketch 58 (84663) - https://sketch.com -->
    <title>ICON_自助支持-normal</title>
    <desc>Created with Sketch.</desc>
    <g id="页面-1" stroke="none" stroke-width="1" fill="none" fill-rule="evenodd">
        <g id="画板" transform="translate(-91.000000, -227.000000)">
            <g id="ICON_自助支持" transform="translate(80.000000, 218.000000)">
                <g>
                    <rect id="矩形" stroke="#979797" fill="#D8D8D8" opacity="0" x="0.5" y="0.5" width="31" height="31"></rect>
                    <g id="自助" transform="translate(11.000000, 9.000000)" fill="#626E88" fill-rule="nonzero">
                        <g id="编组-2">
                            <path d="M8.94781495,5.48980884 C8.80699411,5.48969762 8.6671369,5.51302735 8.53397694,5.55884161 C8.52011162,5.5518814 8.50557232,5.54635406 8.4905849,5.54234547 C8.24206692,5.14464497 7.81926361,4.90043033 7.34302712,4.90043033 C7.1834036,4.90030622 7.0248966,4.92703724 6.87414218,4.97950424 C6.62813447,4.56530761 6.19546934,4.31033461 5.70865381,4.31033461 C5.62230276,4.31023305 5.53612095,4.31797501 5.45117054,4.33346508 L5.45117054,3.58163541 C5.45117054,2.79842723 4.85049576,2.18466313 4.0832458,2.18466313 C3.30846499,2.18466313 2.67802544,2.81115796 2.67802544,3.58163541 L2.67802544,7.27228882 L2.46285835,7.05712174 C2.21183009,6.80842445 1.86325941,6.67125543 1.47954478,6.67125543 C1.09583015,6.67125543 0.718211919,6.8159553 0.476686867,7.05783897 C-0.0499345717,7.58446041 -0.225475046,8.4987412 0.392951003,9.11770518 L3.5456867,12.2512551 C3.62037543,12.3248435 3.70300372,12.3899118 3.79205301,12.4452641 C4.3837625,12.9245488 5.0889726,13.2424582 6.57954258,13.2424582 C10.0439119,13.2424582 10.3340289,11.2114602 10.3340289,9.13061521 L10.3340289,6.88731905 C10.3340289,6.10321433 9.73765745,5.48962954 8.94781495,5.48962954 L8.94781495,5.48980884 Z" id="路径"></path>
                            <path d="M1.82237766,6.17332295 C1.94440061,6.26395083 2.11677397,6.23859237 2.20752676,6.11666228 C2.25121027,6.05805408 2.26978574,5.98447621 2.25915638,5.91215618 C2.24852702,5.83983615 2.20956598,5.77471481 2.15086609,5.73115459 C1.41821606,5.19110754 0.987283659,4.33383918 0.990936189,3.42366693 C0.990936189,1.83914065 2.28032493,0.549393296 3.86520982,0.549393296 C5.45009471,0.549393296 6.73984206,1.83931995 6.73984206,3.42420484 C6.73992635,3.61657736 6.72088607,3.80848179 6.6830021,3.99708719 C6.66207263,4.09418319 6.69501029,4.19502983 6.76921649,4.26105343 C6.84342269,4.32707704 6.94741578,4.34806204 7.04141859,4.31598171 C7.1354214,4.28390138 7.20488924,4.20371938 7.22325078,4.10610519 C7.26851355,3.88181064 7.29127868,3.65355875 7.29120789,3.42474276 C7.29120789,1.53611368 5.75437683,1.2952602e-14 3.86646497,1.2952602e-14 C1.9785531,1.2952602e-14 0.441722209,1.5368309 0.441722209,3.42474276 C0.444330826,4.50756018 0.956234063,5.526053 1.82363281,6.17421948 L1.82237766,6.17332295 Z" id="路径"></path>
                        </g>
                    </g>
                </g>
            </g>
        </g>
    </g>
</svg>