<?xml version="1.0" encoding="UTF-8"?>
<svg width="34px" height="34px" viewBox="0 0 34 34" version="1.1" xmlns="http://www.w3.org/2000/svg" xmlns:xlink="http://www.w3.org/1999/xlink">
    <!-- Generator: Sketch 58 (84663) - https://sketch.com -->
    <title>uos</title>
    <desc>Created with Sketch.</desc>
    <defs>
        <linearGradient x1="12.7873455%" y1="12.8992024%" x2="89.2120253%" y2="81.1964632%" id="linearGradient-1">
            <stop stop-color="#1370E2" offset="0%"></stop>
            <stop stop-color="#0FC0E3" offset="29.1728252%"></stop>
            <stop stop-color="#23BEEA" offset="67.364337%"></stop>
            <stop stop-color="#36ADE8" offset="100%"></stop>
        </linearGradient>
        <linearGradient x1="12.7873455%" y1="12.8992024%" x2="89.2120253%" y2="81.1964632%" id="linearGradient-2">
            <stop stop-color="#1370E2" offset="0%"></stop>
            <stop stop-color="#28DBFF" offset="29.1728252%"></stop>
            <stop stop-color="#00CBFC" offset="73.5193201%"></stop>
            <stop stop-color="#36ADE8" offset="100%"></stop>
        </linearGradient>
        <circle id="path-3" cx="17" cy="17" r="14.0857143"></circle>
        <path d="M5.69645714,13.0482286 L5.69645714,18.1773714 C5.69645714,19.2614857 5.97622857,20.0891429 6.53577143,20.672 C7.09531429,21.2432 7.92297143,21.5346286 9.01874286,21.5346286 C10.1145143,21.5346286 10.9421714,21.2432 11.5133714,20.6603429 C12.0612571,20.0891429 12.3410286,19.2614857 12.3410286,18.1773714 L12.3410286,13.0482286 L11.3851429,13.0482286 L11.3851429,18.1890286 C11.3851429,19.0050286 11.1986286,19.6228571 10.8372571,20.0425143 C10.4409143,20.4738286 9.83474286,20.6953143 9.01874286,20.6953143 C8.19108571,20.6953143 7.58491429,20.4738286 7.20022857,20.0425143 C6.8272,19.6228571 6.65234286,19.0050286 6.65234286,18.1890286 L6.65234286,13.0482286 L5.69645714,13.0482286 Z M17.6566857,12.8850286 C16.3977143,12.8850286 15.4185143,13.3046857 14.6957714,14.144 C14.008,14.9366857 13.6699429,15.9625143 13.6699429,17.2214857 C13.6699429,18.4688 14.008,19.4946286 14.6957714,20.2873143 C15.4185143,21.1149714 16.3977143,21.5346286 17.6450286,21.5346286 C18.8923429,21.5346286 19.8832,21.1149714 20.6059429,20.2873143 C21.2820571,19.4946286 21.6317714,18.4804571 21.6317714,17.2214857 C21.6317714,15.9508571 21.2820571,14.9250286 20.6059429,14.1323429 C19.8832,13.2930286 18.8923429,12.8850286 17.6566857,12.8850286 Z M17.6566857,13.736 C18.6125714,13.736 19.3586286,14.0507429 19.8948571,14.6918857 C20.4077714,15.3213714 20.6758857,16.1606857 20.6758857,17.2214857 C20.6758857,18.2706286 20.4077714,19.0982857 19.8948571,19.7277714 C19.3586286,20.3572571 18.6009143,20.6836571 17.6450286,20.6836571 C16.6891429,20.6836571 15.9314286,20.3572571 15.3952,19.7044571 C14.8822857,19.0749714 14.6258286,18.2473143 14.6258286,17.2214857 C14.6258286,16.184 14.8822857,15.3563429 15.3952,14.7268571 C15.9430857,14.0624 16.7008,13.736 17.6566857,13.736 Z M25.7584,12.8850286 C26.6909714,12.8850286 27.4370286,13.0948571 27.9732571,13.5261714 C28.5328,13.9691429 28.8475429,14.6336 28.9291429,15.5078857 L27.9849143,15.5078857 C27.88,14.9017143 27.6468571,14.4587429 27.2854857,14.1673143 C26.9124571,13.8642286 26.3878857,13.7243429 25.7117714,13.7243429 C25.0939429,13.7243429 24.616,13.8176 24.2662857,14.0274286 C23.8699429,14.2605714 23.6717714,14.6102857 23.6717714,15.0882286 C23.6717714,15.5078857 23.9049143,15.8459429 24.3828571,16.1024 C24.5556571,16.1984 24.9340101,16.3339294 25.5114052,16.5089882 L25.9099429,16.6269714 C27.0057143,16.9533714 27.7284571,17.2214857 28.0781714,17.4313143 C28.7659429,17.8509714 29.1156571,18.4338286 29.1156571,19.1915429 C29.1156571,19.9142857 28.8242286,20.4971429 28.2413714,20.9168 C27.6585143,21.3248 26.8774857,21.5346286 25.8866286,21.5346286 C24.9074286,21.5346286 24.1380571,21.3248 23.5785143,20.9051429 C22.9257143,20.4038857 22.5643429,19.6461714 22.4944,18.6203429 L23.4386286,18.6203429 C23.5202286,19.3430857 23.7766857,19.8793143 24.1963429,20.2173714 C24.5810286,20.5204571 25.1405714,20.6836571 25.8866286,20.6836571 C26.5627429,20.6836571 27.1222857,20.5554286 27.5419429,20.2989714 C27.9616,20.0425143 28.1714286,19.6928 28.1714286,19.2498286 C28.1714286,18.7580429 27.9255357,18.3687125 27.4433552,18.0818375 L27.3437714,18.0258286 C27.1106286,17.8859429 26.5161143,17.6877714 25.5835429,17.4196571 L25.1357413,17.2814132 C24.3878623,17.0452723 23.8975519,16.8613414 23.6717714,16.7435429 C23.0306286,16.3705143 22.7158857,15.8342857 22.7158857,15.1348571 C22.7158857,14.4121143 23.0189714,13.8409143 23.6368,13.4445714 C24.1846857,13.0715429 24.8957714,12.8850286 25.7584,12.8850286 Z" id="path-4"></path>
        <filter x="-10.7%" y="-17.3%" width="121.4%" height="169.4%" filterUnits="objectBoundingBox" id="filter-5">
            <feOffset dx="0" dy="2" in="SourceAlpha" result="shadowOffsetOuter1"></feOffset>
            <feGaussianBlur stdDeviation="0.5" in="shadowOffsetOuter1" result="shadowBlurOuter1"></feGaussianBlur>
            <feColorMatrix values="0 0 0 0 0   0 0 0 0 0   0 0 0 0 0  0 0 0 0.183539117 0" type="matrix" in="shadowBlurOuter1"></feColorMatrix>
        </filter>
    </defs>
    <g id="页面-1" stroke="none" stroke-width="1" fill="none" fill-rule="evenodd">
        <g id="编组-9" transform="translate(-220.000000, -88.000000)">
            <g id="uos" transform="translate(220.000000, 88.000000)">
                <g>
                    <path d="M17,0 C26.3888407,0 34,7.61115925 34,17 C34,26.3888407 26.3888407,34 17,34 C7.61115925,34 0,26.3888407 0,17 C0,7.61115925 7.61115925,0 17,0 Z M17,1.94285714 C8.68416962,1.94285714 1.94285714,8.68416962 1.94285714,17 C1.94285714,25.3158304 8.68416962,32.0571429 17,32.0571429 C25.3158304,32.0571429 32.0571429,25.3158304 32.0571429,17 C32.0571429,8.68416962 25.3158304,1.94285714 17,1.94285714 Z" id="形状结合" fill="url(#linearGradient-1)"></path>
                    <g id="椭圆形备份-12">
                        <use fill="#D8D8D8" xlink:href="#path-3"></use>
                        <use fill="url(#linearGradient-2)" xlink:href="#path-3"></use>
                    </g>
                    <g id="UOS" fill-rule="nonzero">
                        <use fill="black" fill-opacity="1" filter="url(#filter-5)" xlink:href="#path-4"></use>
                        <use fill="#FFFFFF" xlink:href="#path-4"></use>
                    </g>
                </g>
            </g>
        </g>
    </g>
</svg>