<?xml version="1.0" encoding="UTF-8"?>
<svg width="26px" height="30px" viewBox="0 0 26 30" version="1.1" xmlns="http://www.w3.org/2000/svg" xmlns:xlink="http://www.w3.org/1999/xlink">
    <!-- Generator: Sketch 58 (84663) - https://sketch.com -->
    <title>压缩文件</title>
    <desc>Created with Sketch.</desc>
    <defs>
        <filter x="-29.5%" y="-25.0%" width="159.1%" height="150.0%" filterUnits="objectBoundingBox" id="filter-1">
            <feOffset dx="0" dy="1" in="SourceAlpha" result="shadowOffsetOuter1"></feOffset>
            <feGaussianBlur stdDeviation="1" in="shadowOffsetOuter1" result="shadowBlurOuter1"></feGaussianBlur>
            <feColorMatrix values="0 0 0 0 0.482352941   0 0 0 0 0.341176471   0 0 0 0 0.847058824  0 0 0 0.5 0" type="matrix" in="shadowBlurOuter1" result="shadowMatrixOuter1"></feColorMatrix>
            <feMerge>
                <feMergeNode in="shadowMatrixOuter1"></feMergeNode>
                <feMergeNode in="SourceGraphic"></feMergeNode>
            </feMerge>
        </filter>
        <linearGradient x1="50%" y1="0%" x2="50%" y2="100%" id="linearGradient-2">
            <stop stop-color="#AB96F1" offset="0%"></stop>
            <stop stop-color="#7B58D2" offset="100%"></stop>
        </linearGradient>
    </defs>
    <g id="页面-1" stroke="none" stroke-width="1" fill="none" fill-rule="evenodd">
        <g id="画板" transform="translate(-534.000000, -405.000000)">
            <g id="压缩文件" filter="url(#filter-1)" transform="translate(536.000000, 406.000000)">
                <g id="编组-12备份-2">
                    <path d="M15.0974283,-4.4408921e-16 L22,7.39002433 L22,22 C22,24.209139 20.209139,26 18,26 L4,26 C1.790861,26 -2.81511679e-14,24.209139 -2.84217094e-14,22 L-2.84217094e-14,4 C-2.86922509e-14,1.790861 1.790861,4.05812251e-16 4,0 L15.0974283,-4.4408921e-16 Z" id="形状结合" fill="url(#linearGradient-2)"></path>
                    <polygon id="路径-15" fill="#C1AAFF" points="15.0974283 -2.84217094e-14 15.0974283 7.39002433 22 7.39002433"></polygon>
                </g>
                <rect id="矩形" fill="#CCB4FA" x="0" y="13" width="6" height="3"></rect>
                <rect id="矩形" stroke="#E1C2F7" x="7.5" y="12.5" width="7" height="4"></rect>
                <rect id="矩形" fill="#FFFFFF" x="10" y="14" width="2" height="2"></rect>
                <rect id="矩形备份-23" fill="#CCB4FA" x="16" y="13" width="6" height="3"></rect>
            </g>
        </g>
    </g>
</svg>