<?xml version="1.0" encoding="UTF-8"?>
<svg width="13px" height="14px" viewBox="0 0 13 14" version="1.1" xmlns="http://www.w3.org/2000/svg" xmlns:xlink="http://www.w3.org/1999/xlink">
    <!-- Generator: Sketch 58 (84663) - https://sketch.com -->
    <title>ICON_联系我们-normal</title>
    <desc>Created with Sketch.</desc>
    <g id="页面-1" stroke="none" stroke-width="1" fill="none" fill-rule="evenodd">
        <g id="画板" transform="translate(-90.000000, -267.000000)">
            <g id="ICON_联系我们" transform="translate(80.000000, 258.000000)">
                <g>
                    <rect id="矩形" stroke="#979797" fill="#D8D8D8" opacity="0" x="0.5" y="0.5" width="31" height="31"></rect>
                    <path d="M20.7797224,22.0636986 L20.7774324,22.0643551 C20.778089,22.0656523 19.7645951,22.6736173 19.7645951,22.6736173 L17.6406253,19.0180286 L18.6541191,18.4074533 C18.8738025,18.2772735 19.1559736,18.347576 19.28681,18.5727844 C19.2877869,18.5740976 20.9418026,21.4140966 20.9418026,21.4140966 L20.941146,21.4160343 C21.0658009,21.6321466 21.0121052,21.9237661 20.7797224,22.0636986 Z M12.7570479,17.878903 C9.77482641,12.6024801 11.3686125,10.2734638 11.931017,9.84384953 L14.1047911,13.5788689 C13.5814455,13.8939172 13.832709,14.6021154 14.1438499,15.2960128 C14.1490545,15.3285537 15.6549705,17.9101468 15.6683103,17.9179457 C16.446827,18.9919734 16.8686264,19.4866856 17.3691837,19.18597 L19.4876447,22.831806 C18.8881193,23.2086853 15.8984191,23.4391144 12.7570479,17.878903 Z M15.3955877,12.8023059 L15.3949311,12.8042596 C15.3945948,12.8055568 14.3817576,13.4122246 14.3817576,13.4122246 L12.2105937,9.6759081 L13.2240875,9.06534884 C13.4431304,8.93516901 13.7256218,9.00415839 13.8567945,9.23067995 C13.8574511,9.23133654 15.5589651,12.1539851 15.5589651,12.1539851 L15.5583085,12.1572359 C15.6829634,12.3714105 15.6279544,12.6623734 15.3955877,12.8023059 Z" id="形状" fill="#626E88" fill-rule="nonzero" transform="translate(16.003238, 16.000000) rotate(-13.000000) translate(-16.003238, -16.000000) "></path>
                </g>
            </g>
        </g>
    </g>
</svg>