<?xml version="1.0" encoding="UTF-8"?>
<svg width="63px" height="57px" viewBox="0 0 63 57" version="1.1" xmlns="http://www.w3.org/2000/svg" xmlns:xlink="http://www.w3.org/1999/xlink">
    <!-- Generator: Sketch 58 (84663) - https://sketch.com -->
    <title>Q&amp;A</title>
    <desc>Created with Sketch.</desc>
    <defs>
        <filter x="-21.8%" y="-24.5%" width="143.6%" height="149.0%" filterUnits="objectBoundingBox" id="filter-1">
            <feOffset dx="0" dy="2" in="SourceAlpha" result="shadowOffsetOuter1"></feOffset>
            <feGaussianBlur stdDeviation="2" in="shadowOffsetOuter1" result="shadowBlurOuter1"></feGaussianBlur>
            <feColorMatrix values="0 0 0 0 0   0 0 0 0 0   0 0 0 0 0  0 0 0 0.2 0" type="matrix" in="shadowBlurOuter1" result="shadowMatrixOuter1"></feColorMatrix>
            <feMerge>
                <feMergeNode in="shadowMatrixOuter1"></feMergeNode>
                <feMergeNode in="SourceGraphic"></feMergeNode>
            </feMerge>
        </filter>
        <linearGradient x1="50%" y1="0%" x2="50%" y2="100%" id="linearGradient-2">
            <stop stop-color="#FFB7EB" offset="0%"></stop>
            <stop stop-color="#B625A0" offset="100%"></stop>
        </linearGradient>
        <linearGradient x1="50%" y1="0%" x2="50%" y2="100%" id="linearGradient-3">
            <stop stop-color="#9EB9FF" offset="0%"></stop>
            <stop stop-color="#3771F4" offset="100%"></stop>
        </linearGradient>
    </defs>
    <g id="页面-1" stroke="none" stroke-width="1" fill="none" fill-rule="evenodd">
        <g id="画板" transform="translate(-328.000000, -293.000000)">
            <g id="Q&amp;A" transform="translate(317.000000, 277.000000)">
                <rect id="矩形" fill="#D8D8D8" opacity="0" x="0" y="0" width="84" height="84"></rect>
                <g id="编组-5" filter="url(#filter-1)" transform="translate(15.000000, 18.000000)">
                    <path d="M19,17 L19,26 C19,27.1045695 19.8954305,28 21,28 L34,28 L34,41 C34,42.1045695 33.1045695,43 32,43 L12.0777319,43.0008729 C10.4121204,45.1173312 9.21855337,46.6269663 8.49703091,47.5297783 C7.69519299,48.5330858 7.12293626,48.7216585 6.78026072,48.0954964 L6.73286885,48.0005022 L6.088,43 L2,43 C0.8954305,43 1.3527075e-16,42.1045695 0,41 L0,19 C-1.3527075e-16,17.8954305 0.8954305,17 2,17 L19,17 Z M12.9913669,24 C11.0920863,24 9.60719424,24.6079404 8.53669065,25.8585608 C7.50071942,27.0397022 7,28.5682382 7,30.4615385 C7,32.337469 7.50071942,33.866005 8.53669065,35.0471464 C9.60719424,36.2630273 11.0920863,36.8883375 12.9913669,36.8883375 C14.2345324,36.8883375 15.3223022,36.6104218 16.2201439,36.08933 C16.6690647,36.6799007 17.1179856,37.3225806 17.5841727,38 L18.8964029,36.853598 C18.447482,36.1935484 17.981295,35.5682382 17.5323741,34.9776675 C18.4992806,33.8312655 19,32.3200993 19,30.4615385 C19,28.5508685 18.4820144,27.0049628 17.4460432,25.8411911 C16.3582734,24.6079404 14.8733813,24 12.9913669,24 Z M13,26 C14.2869565,26 15.2782609,26.386194 15.973913,27.1921642 C16.6521739,27.9981343 17,29.1063433 17,30.516791 C17,31.6753731 16.7565217,32.6324627 16.3043478,33.3712687 C15.7130435,32.6996269 15.1043478,32.0447761 14.4956522,31.4235075 L13.3130435,32.5317164 C13.8869565,33.119403 14.4782609,33.7742537 15.1043478,34.5130597 C14.5130435,34.8320896 13.8173913,35 13,35 C11.7130435,35 10.7043478,34.5802239 10.0086957,33.7574627 C9.33043478,32.9514925 9,31.8768657 9,30.516791 C9,29.1399254 9.33043478,28.0652985 10.0086957,27.2593284 C10.7217391,26.4197761 11.7130435,26 13,26 Z" id="形状结合" fill="url(#linearGradient-2)"></path>
                    <path d="M53,0 C54.1045695,2.02906125e-16 55,0.8954305 55,2 L55,2 L55,24 C55,25.1045695 54.1045695,26 53,26 L53,26 L48.912,26 L48.2671312,31.0005022 L48.2197393,31.0954964 C47.8770637,31.7216585 47.304807,31.5330858 46.5029691,30.5297783 C45.7814466,29.6269663 44.5878796,28.1173312 42.9222681,26.0008729 L42.9222681,26.0008729 L23,26 C21.8954305,26 21,25.1045695 21,24 L21,24 L21,2 C21,0.8954305 21.8954305,-2.02906125e-16 23,0 L23,0 Z M39.526,5.006 L36.733,5.006 L31,20 L33.625,20 L34.99,16.241 L41.269,16.241 L42.634,20 L45.259,20 L39.526,5.006 Z M38.182,7.652 L40.534,14.225 L35.725,14.225 L38.098,7.652 L38.182,7.652 Z" id="形状结合" fill="url(#linearGradient-3)"></path>
                </g>
            </g>
        </g>
    </g>
</svg>