<?xml version="1.0" encoding="UTF-8"?>
<svg width="44px" height="44px" viewBox="0 0 44 44" version="1.1" xmlns="http://www.w3.org/2000/svg" xmlns:xlink="http://www.w3.org/1999/xlink">
    <!-- Generator: Sketch 58 (84663) - https://sketch.com -->
    <title>上传文件按钮</title>
    <desc>Created with Sketch.</desc>
    <defs>
        <linearGradient x1="50%" y1="0%" x2="50%" y2="95.6533653%" id="linearGradient-1">
            <stop stop-color="#E6E6E6" offset="0%"></stop>
            <stop stop-color="#E3E3E3" offset="100%"></stop>
        </linearGradient>
        <rect id="path-2" x="0" y="0" width="36" height="36" rx="8"></rect>
        <filter x="-19.4%" y="-13.9%" width="138.9%" height="138.9%" filterUnits="objectBoundingBox" id="filter-3">
            <feOffset dx="0" dy="2" in="SourceAlpha" result="shadowOffsetOuter1"></feOffset>
            <feGaussianBlur stdDeviation="2" in="shadowOffsetOuter1" result="shadowBlurOuter1"></feGaussianBlur>
            <feComposite in="shadowBlurOuter1" in2="SourceAlpha" operator="out" result="shadowBlurOuter1"></feComposite>
            <feColorMatrix values="0 0 0 0 0   0 0 0 0 0   0 0 0 0 0  0 0 0 0.05 0" type="matrix" in="shadowBlurOuter1"></feColorMatrix>
        </filter>
    </defs>
    <g id="页面-1" stroke="none" stroke-width="1" fill="none" fill-rule="evenodd">
        <g id="画板" transform="translate(-209.000000, -358.000000)">
            <g id="上传文件按钮" transform="translate(213.000000, 360.000000)">
                <g id="矩形">
                    <use fill="black" fill-opacity="1" filter="url(#filter-3)" xlink:href="#path-2"></use>
                    <use fill-opacity="0.08" fill="#000000" fill-rule="evenodd" xlink:href="#path-2"></use>
                    <rect stroke-opacity="0.03" stroke="#000000" stroke-width="1" stroke-linejoin="square" fill="url(#linearGradient-1)" fill-rule="evenodd" x="0.5" y="0.5" width="35" height="35" rx="8"></rect>
                </g>
                <g id="文件" transform="translate(9.000000, 10.000000)" fill="#536076" fill-rule="nonzero">
                    <path d="M18.05,4.97478993 L18.05,3.63025211 C18.05,2.42016809 17.1,1.21008404 15.8785714,1.21008404 L9.90714285,1.21008404 L9.77142856,0.806722702 C9.5,0.268907574 8.95714285,0 8.41428571,0 L2.03571429,0 C0.95,0 0,0.941176471 0,2.01680673 L0,13.9831933 C0,15.0588235 0.95,16 2.03571429,16 L16.9642857,16 C18.05,16 19,15.0588235 19,13.9831933 L19,6.72268908 C19,6.05042017 18.5928571,5.37815127 18.05,4.97478993 Z M16.5571429,4.4369748 L11.6714286,4.4369748 L10.7214286,2.55462186 L15.8785714,2.55462186 C16.2857143,2.55462186 16.6928571,3.09243699 16.6928571,3.63025211 L16.6928571,4.4369748 L16.5571429,4.4369748 Z M1.35714285,2.01680673 C1.35714285,1.61344539 1.62857142,1.34453783 2.03571429,1.34453783 L8.41428571,1.34453783 C8.41428571,1.34453783 8.55,1.34453783 8.55,1.4789916 L10.5857143,5.37815127 C10.7214286,5.64705882 10.9928571,5.78151261 11.2642857,5.78151261 L16.6928571,5.78151261 C17.1,5.78151261 17.6428571,6.31932774 17.6428571,6.72268908 L17.6428571,14.1176471 C17.6428571,14.5210084 17.3714286,14.789916 16.9642857,14.789916 L2.03571429,14.789916 C1.62857144,14.789916 1.35714285,14.5210084 1.35714285,14.1176471 L1.35714285,2.01680673 Z" id="形状"></path>
                </g>
            </g>
        </g>
    </g>
</svg>