<?xml version="1.0" encoding="UTF-8"?>
<svg width="15px" height="14px" viewBox="0 0 15 14" version="1.1" xmlns="http://www.w3.org/2000/svg" xmlns:xlink="http://www.w3.org/1999/xlink">
    <!-- Generator: Sketch 58 (84663) - https://sketch.com -->
    <title>ICON_介绍-normal</title>
    <desc>Created with Sketch.</desc>
    <g id="页面-1" stroke="none" stroke-width="1" fill="none" fill-rule="evenodd">
        <g id="画板" transform="translate(-89.000000, -107.000000)">
            <g id="ICON_介绍" transform="translate(80.000000, 98.000000)">
                <g>
                    <rect id="矩形" stroke="#979797" fill="#D8D8D8" opacity="0" x="0.5" y="0.5" width="31" height="31"></rect>
                    <g transform="translate(9.000000, 9.000000)" fill="#626E88">
                        <path d="M13,0 C14.1045695,-2.02906125e-16 15,0.8954305 15,2 L15,12 C15,13.1045695 14.1045695,14 13,14 L2,14 C0.8954305,14 -1.85164761e-14,13.1045695 -1.86517468e-14,12 L-1.86517468e-14,2 C-1.87870176e-14,0.8954305 0.8954305,2.02906125e-16 2,0 L13,0 Z M12,3 L3,3 C2.48716416,3 2.06449284,3.38604019 2.00672773,3.88337887 L2,4 L2,11 C2,11.5128358 2.38604019,11.9355072 2.88337887,11.9932723 L3,12 L12,12 C12.5128358,12 12.9355072,11.6139598 12.9932723,11.1166211 L13,11 L13,4 C13,3.44771525 12.5522847,3 12,3 Z M10.5,1 C10.2238576,1 10,1.22385763 10,1.5 C10,1.77614237 10.2238576,2 10.5,2 C10.7761424,2 11,1.77614237 11,1.5 C11,1.22385763 10.7761424,1 10.5,1 Z M8.5,1 C8.22385763,1 8,1.22385763 8,1.5 C8,1.77614237 8.22385763,2 8.5,2 C8.77614237,2 9,1.77614237 9,1.5 C9,1.22385763 8.77614237,1 8.5,1 Z M12.5,1 C12.2238576,1 12,1.22385763 12,1.5 C12,1.77614237 12.2238576,2 12.5,2 C12.7761424,2 13,1.77614237 13,1.5 C13,1.22385763 12.7761424,1 12.5,1 Z" id="形状结合" fill-rule="nonzero"></path>
                        <rect id="矩形" x="3" y="5" width="9" height="1"></rect>
                        <rect id="矩形备份" x="3" y="7" width="9" height="1"></rect>
                        <rect id="矩形备份-2" x="3" y="9" width="9" height="1"></rect>
                    </g>
                </g>
            </g>
        </g>
    </g>
</svg>