<?xml version="1.0" encoding="UTF-8"?>
<svg width="23px" height="23px" viewBox="0 0 23 23" version="1.1" xmlns="http://www.w3.org/2000/svg" xmlns:xlink="http://www.w3.org/1999/xlink">
    <!-- Generator: Sketch 58 (84663) - https://sketch.com -->
    <title>mail</title>
    <desc>Created with Sketch.</desc>
    <g id="页面-1" stroke="none" stroke-width="1" fill="none" fill-rule="evenodd">
        <g id="联系我们" transform="translate(-355.000000, -545.000000)" fill="#626E88" fill-rule="nonzero">
            <g id="mail" transform="translate(355.000000, 545.000000)">
                <path d="M21.8095395,4.84382699 C20.8685188,3.23365373 19.567696,2.02269698 17.9209097,1.21095675 C16.2741234,0.39921651 14.419759,0 12.3578165,0 C9.70081675,0 7.43129614,0.572210331 5.5630932,1.72993821 C3.69489026,2.87435887 2.25568207,4.55106821 1.24546863,6.70683737 C0.415156209,8.47669723 0,10.3397076 0,12.2825613 C0,14.0391139 0.345963507,15.6625944 1.05172906,17.1796171 C1.60527067,18.3772667 2.43558309,19.4285368 3.54266632,20.3467348 C4.635911,21.2649328 5.96441087,21.9436008 7.52816592,22.4093534 C9.09192097,22.8617988 10.7663844,23.0880215 12.6069102,22.9682565 C14.6273371,22.8351844 15.0840089,22.6488833 16.7584723,22.3694318 L16.7307952,20.8124874 C11.7904363,22.1565163 8.67676477,20.972174 7.00230139,20.3068131 C5.32783801,19.6414523 4.04085377,18.5635677 3.15518719,17.1530027 C2.26952061,15.7291305 1.84052586,14.0524212 1.84052586,12.0962603 C1.84052586,10.2199427 2.28335915,8.47669723 3.16902573,6.83990954 C4.05469231,5.20312185 5.30016093,3.95224345 6.91927015,3.07396713 C8.52454082,2.1956908 10.3097125,1.75655264 12.2609467,1.75655264 C13.9630872,1.75655264 15.5268422,2.10254029 16.9383733,2.79451557 C18.3499044,3.48649085 19.415472,4.41799604 20.1212376,5.57572392 C20.8270031,6.7334518 21.1868052,7.9843302 21.1868052,9.3150519 C21.1868052,10.4594726 20.9100344,11.5772788 20.3564928,12.6418561 C19.8029512,13.7197407 19.05567,14.5714026 18.1008107,15.210149 C17.3812066,15.7025161 16.7999879,15.942046 16.3709932,15.942046 C16.1218994,15.942046 15.9281599,15.8622027 15.7482589,15.7025161 C15.5821964,15.5428295 15.4853266,15.3565284 15.4853266,15.1436129 C15.4853266,15.023848 15.6098735,14.3318727 15.8589672,13.2140665 L17.6579774,5.09666411 L15.4299724,5.09666411 L15.0009777,7.02621058 C14.5304673,6.28100642 13.9630872,5.76202496 13.2988372,5.4027301 C12.6484258,5.04343524 11.9564988,4.87044142 11.2230562,4.87044142 C10.2820354,4.87044142 9.29949908,5.20312185 8.28928564,5.84186826 C7.2790722,6.48061468 6.43492124,7.4387343 5.75683276,8.71622713 C5.07874429,9.99371997 4.73278078,11.2712128 4.73278078,12.5353984 C4.73278078,13.5733613 4.95419743,14.5181737 5.38319218,15.3831429 C5.82602546,16.248112 6.39340562,16.8868584 7.08533263,17.2993821 C7.79109819,17.7119058 8.49686374,17.9248213 9.24414492,17.9248213 C9.92223339,17.9248213 10.5864833,17.7385203 11.2645718,17.3792254 C11.9288217,17.0199305 12.5377175,16.5275635 13.0774206,15.9287387 C13.1327747,16.4211058 13.2019674,16.7670934 13.3126758,16.9533945 C13.4787382,17.2594604 13.7416705,17.5122976 14.087634,17.6719842 C14.4335975,17.844978 14.9041079,17.9248213 15.4853266,17.9248213 C17.2843368,17.9248213 18.9311231,17.1130811 20.4533626,15.5029078 C22.155503,13.7064335 22.999654,11.6438149 22.999654,9.3150519 C23.0134925,7.73149308 22.6121748,6.22777756 21.8095395,4.84382699 L21.8095395,4.84382699 Z M13.8247018,12.5620128 C13.5202539,13.3737531 13.1327747,14.0391139 12.6622644,14.5714026 C12.191754,15.1036913 11.7074051,15.5029078 11.1815406,15.7690521 C10.6695146,16.0351965 10.1713271,16.1682687 9.71465529,16.1682687 C9.00888973,16.1682687 8.39999396,15.8622027 7.86029089,15.2633779 C7.32058782,14.6512459 7.04381701,13.799584 7.04381701,12.7083922 C7.04381701,12.0164169 7.18220241,11.2712128 7.44513468,10.4328581 C7.70806695,9.60781067 8.06786899,8.90252817 8.51070228,8.33031784 C8.95353557,7.75810751 9.4102074,7.33227657 9.88071777,7.07943944 C10.3512281,6.8132951 10.8494156,6.69353015 11.3891187,6.69353015 C12.191754,6.69353015 12.883681,6.99959614 13.4372226,7.59842091 C14.0046028,8.19724567 14.2813736,9.03560034 14.2813736,10.1267921 C14.2813736,10.9385324 14.1291496,11.7502726 13.8247018,12.5620128 Z" id="形状"></path>
            </g>
        </g>
    </g>
</svg>