<?xml version="1.0" encoding="UTF-8"?>
<svg width="16px" height="14px" viewBox="0 0 16 14" version="1.1" xmlns="http://www.w3.org/2000/svg" xmlns:xlink="http://www.w3.org/1999/xlink">
    <!-- Generator: Sketch 58 (84663) - https://sketch.com -->
    <title>ICON_留言咨询-normal</title>
    <desc>Created with Sketch.</desc>
    <g id="页面-1" stroke="none" stroke-width="1" fill="none" fill-rule="evenodd">
        <g id="画板" transform="translate(-88.000000, -147.000000)">
            <g id="ICON_留言咨询" transform="translate(80.000000, 138.000000)">
                <g>
                    <rect id="矩形" stroke="#979797" fill="#D8D8D8" opacity="0" x="0.5" y="0.5" width="31" height="31"></rect>
                    <g id="编组" transform="translate(8.000000, 9.000000)">
                        <path d="M13,3.58974359 C13.5522847,3.58974359 14,4.03745884 14,4.58974359 L14,10.9917055 C14,11.1270694 13.9731044,11.2561515 13.9243655,11.3738994 L14.2015506,12.9344488 C14.090978,13.3015549 13.749578,13.3611053 13.1773506,13.1131001 C12.6791779,12.8971904 11.8860649,12.5233969 10.7980117,11.9917196 L2.86666667,11.9917055 C2.31438192,11.9917055 1.86666667,11.5439902 1.86666667,10.9917055 L1.86666667,4.58974359 C1.86666667,4.03745884 2.31438192,3.58974359 2.86666667,3.58974359 L13,3.58974359 Z M7.93333333,5.99030413 C6.92817509,5.99030413 6.11333333,6.7963798 6.11333333,7.79072454 C6.11333333,8.78506927 6.92817509,9.59114495 7.93333333,9.59114495 C8.93849158,9.59114495 9.75333333,8.78506927 9.75333333,7.79072454 C9.75333333,6.7963798 8.93849158,5.99030413 7.93333333,5.99030413 Z M3.99,6.59044427 C3.48742088,6.59044427 3.08,6.9934821 3.08,7.49065447 C3.08,7.98782684 3.48742088,8.39086467 3.99,8.39086467 C4.49257912,8.39086467 4.9,7.98782684 4.9,7.49065447 C4.9,6.9934821 4.49257912,6.59044427 3.99,6.59044427 Z M11.8766667,6.59044427 C11.3740875,6.59044427 10.9666667,6.9934821 10.9666667,7.49065447 C10.9666667,7.98782684 11.3740875,8.39086467 11.8766667,8.39086467 C12.3792458,8.39086467 12.7866667,7.98782684 12.7866667,7.49065447 C12.7866667,6.9934821 12.3792458,6.59044427 11.8766667,6.59044427 Z" id="形状结合" fill="#626E88"></path>
                        <rect id="矩形" fill="#626E88" x="0" y="4.52307692" width="1.86666667" height="3.73333333" rx="0.933333333"></rect>
                        <rect id="矩形备份-3" fill="#626E88" x="14" y="4.52307692" width="1.86666667" height="3.73333333" rx="0.933333333"></rect>
                        <path d="M0.933333333,5.45641026 C0.933333333,2.34529915 3.26666667,0.78974359 7.93333333,0.78974359 C12.6,0.78974359 14.9333333,2.34529915 14.9333333,5.45641026" id="路径-2" stroke="#626E88"></path>
                    </g>
                </g>
            </g>
        </g>
    </g>
</svg>