<?xml version="1.0" encoding="UTF-8"?>
<svg width="224px" height="104px" viewBox="0 0 224 104" version="1.1" xmlns="http://www.w3.org/2000/svg" xmlns:xlink="http://www.w3.org/1999/xlink">
    <!-- Generator: Sketch 58 (84663) - https://sketch.com -->
    <title>无网络</title>
    <desc>Created with Sketch.</desc>
    <defs>
        <linearGradient x1="50%" y1="0%" x2="50%" y2="100%" id="linearGradient-1">
            <stop stop-color="#FF674A" offset="0%"></stop>
            <stop stop-color="#EC5783" offset="100%"></stop>
        </linearGradient>
        <circle id="path-2" cx="19" cy="19" r="14.546875"></circle>
        <filter x="-41.2%" y="-20.6%" width="182.5%" height="182.5%" filterUnits="objectBoundingBox" id="filter-3">
            <feOffset dx="0" dy="6" in="SourceAlpha" result="shadowOffsetOuter1"></feOffset>
            <feGaussianBlur stdDeviation="3" in="shadowOffsetOuter1" result="shadowBlurOuter1"></feGaussianBlur>
            <feColorMatrix values="0 0 0 0 1   0 0 0 0 0.443137255   0 0 0 0 0.443137255  0 0 0 0.3 0" type="matrix" in="shadowBlurOuter1"></feColorMatrix>
        </filter>
        <path d="M22.7115925,50.9962926 C16.7697636,50.8433652 12,45.9787016 12,40 C12,33.9248678 16.9248678,29 23,29 C23.6421724,29 24.2714922,29.0550283 24.8835012,29.1606268 C27.1016829,22.6686714 33.2556281,18 40.5,18 C41.5545645,18 42.5860221,18.0989323 43.5855979,18.288022 C45.1484709,13.4773746 49.6681433,10 55,10 C61.627417,10 67,15.372583 67,22 C67,22.6924377 66.9413516,23.3711773 66.8287514,24.0315224 C72.1912552,24.4297608 76.4836272,28.6746539 76.9566872,34.0171276 C77.1354538,34.0057798 77.3170519,34 77.5,34 C82.1944204,34 86,37.8055796 86,42.5 C86,47.0264131 82.4619397,50.7264679 78.0004728,50.9855108 L78,51 L23,51 Z" id="path-4"></path>
        <filter x="-7.4%" y="-8.5%" width="114.9%" height="126.8%" filterUnits="objectBoundingBox" id="filter-5">
            <feOffset dx="0" dy="2" in="SourceAlpha" result="shadowOffsetOuter1"></feOffset>
            <feGaussianBlur stdDeviation="1.5" in="shadowOffsetOuter1" result="shadowBlurOuter1"></feGaussianBlur>
            <feColorMatrix values="0 0 0 0 0   0 0 0 0 0.432049106   0 0 0 0 0.759086277  0 0 0 0.364674388 0" type="matrix" in="shadowBlurOuter1"></feColorMatrix>
        </filter>
        <path d="M177,77 L176,77 L176.000303,76.9451047 C171.500207,76.4477983 168,72.6326577 168,68 C168,63.0294373 172.029437,59 177,59 C177.699074,59 178.379532,59.0797039 179.032783,59.2305202 C179.422749,54.6202009 183.288603,51 188,51 C191.758779,51 194.979374,53.3042349 196.326285,56.5772024 C198.674526,53.2062385 202.579616,51 207,51 C214.179702,51 220,56.8202983 220,64 C220,71.1797017 214.179702,77 207,77 L177,77 L177,77 Z" id="path-6"></path>
        <filter x="-14.4%" y="-17.3%" width="128.8%" height="157.7%" filterUnits="objectBoundingBox" id="filter-7">
            <feOffset dx="0" dy="3" in="SourceAlpha" result="shadowOffsetOuter1"></feOffset>
            <feGaussianBlur stdDeviation="2" in="shadowOffsetOuter1" result="shadowBlurOuter1"></feGaussianBlur>
            <feColorMatrix values="0 0 0 0 0.149019608   0 0 0 0 0.929411765   0 0 0 0 0.898039216  0 0 0 0.486560315 0" type="matrix" in="shadowBlurOuter1"></feColorMatrix>
        </filter>
    </defs>
    <g id="页面-1" stroke="none" stroke-width="1" fill="none" fill-rule="evenodd">
        <g id="画板" transform="translate(-785.000000, -147.000000)">
            <g id="无网络" transform="translate(785.000000, 143.000000)">
                <path d="M100,47 C95.0294373,47 91,42.9705627 91,38 C91,33.0294373 95.0294373,29 100,29 L35.5,29 C31.9101491,29 29,26.0898509 29,22.5 C29,18.9101491 31.9101491,16 35.5,16 L105.5,16 C109.089851,16 112,18.9101491 112,22.5 C112,26.0898509 109.089851,29 105.5,29 L211,29 C215.970563,29 220,33.0294373 220,38 C220,42.9705627 215.970563,47 211,47 L125.5,47 C129.642136,47 133,50.3578644 133,54.5 C133,58.6421356 129.642136,62 125.5,62 L212.5,62 C216.642136,62 220,65.3578644 220,69.5 C220,73.6421356 216.642136,77 212.5,77 L135,77 C141.075132,77 146,81.9248678 146,88 C146,94.0751322 141.075132,99 135,99 L24,99 C17.9248678,99 13,94.0751322 13,88 C13,81.9248678 17.9248678,77 24,77 L94.5,77 C90.3578644,77 87,73.6421356 87,69.5 C87,65.3578644 90.3578644,62 94.5,62 L7.5,62 C3.35786438,62 -6.59816204e-15,58.6421356 0,54.5 C-5.07265313e-16,50.3578644 3.35786438,47 7.5,47 L100,47 Z" id="形状结合" fill="#E2F8FF"></path>
                <g id="编组-9" transform="translate(61.000000, 0.000000)">
                    <g id="icon/fail">
                        <g id="Oval-1">
                            <use fill="black" fill-opacity="1" filter="url(#filter-3)" xlink:href="#path-2"></use>
                            <use fill="url(#linearGradient-1)" fill-rule="evenodd" xlink:href="#path-2"></use>
                        </g>
                        <path d="M14.3729697,13.5762266 L19.200375,18.4043212 L24.0293966,13.5762266 C24.2355067,13.3701165 24.5554482,13.3472154 24.7868541,13.5075232 L24.8690859,13.5762266 C25.1009597,13.8081004 25.1009597,14.1840421 24.8690859,14.4159159 L24.8690859,14.4159159 L20.040375,19.2433212 L24.8690859,24.0723428 C25.1009597,24.3042166 25.1009597,24.6801584 24.8690859,24.9120322 C24.6372121,25.1439059 24.2612704,25.1439059 24.0293966,24.9120322 L19.200375,20.0833212 L14.3729697,24.9120322 C14.1668596,25.1181422 13.8469181,25.1410433 13.6155122,24.9807355 L13.5332803,24.9120322 C13.3014066,24.6801584 13.3014066,24.3042166 13.5332803,24.0723428 L13.5332803,24.0723428 L18.361375,19.2433212 L13.5332803,14.4159159 C13.3014066,14.1840421 13.3014066,13.8081004 13.5332803,13.5762266 C13.7651541,13.3443528 14.1410959,13.3443528 14.3729697,13.5762266 Z" id="形状结合" fill="#FFFFFF" fill-rule="nonzero"></path>
                    </g>
                    <g id="形状结合">
                        <use fill="black" fill-opacity="1" filter="url(#filter-5)" xlink:href="#path-4"></use>
                        <use fill="#0292FF" fill-rule="evenodd" xlink:href="#path-4"></use>
                    </g>
                </g>
                <g id="形状结合">
                    <use fill="black" fill-opacity="1" filter="url(#filter-7)" xlink:href="#path-6"></use>
                    <use fill="#26EDE5" fill-rule="evenodd" xlink:href="#path-6"></use>
                </g>
                <g id="编组-10" transform="translate(56.000000, 46.000000)" stroke="#979797">
                    <polygon id="路径-9" fill="#FDFFFF" points="5.68434189e-14 -5.32907052e-14 10.271715 41.7233156 28.7178547 32.254639 31.8390999 43.8746062 36.3470655 28.601193 47.771715 21.9373031"></polygon>
                    <path d="M0,5.68434189e-14 L28.7178547,32.254639" id="路径-10"></path>
                    <path d="M-5.68434189e-14,5.68434189e-14 L36.3470655,28.601193" id="路径-11"></path>
                    <path d="M22.5,35.5 L31.5,44.5" id="路径-12"></path>
                </g>
                <path d="M104,89.8746062 C109.666667,104.846085 119.333333,110.109853 133,105.665912 C153.5,99 160.051755,74.601193 151.52989,74.601193 C143.008024,74.601193 143.878382,82.5160457 143.878382,88 C143.878382,93.4839543 152.046118,119.661087 183.820213,95.0805434 C193.882997,87.9613798 197.27626,82.352745 194,78.254639" id="路径-13" stroke="#979797" stroke-dasharray="5,4"></path>
            </g>
        </g>
    </g>
</svg>