<?xml version="1.0" encoding="UTF-8"?>
<svg width="14px" height="14px" viewBox="0 0 14 14" version="1.1" xmlns="http://www.w3.org/2000/svg" xmlns:xlink="http://www.w3.org/1999/xlink">
    <!-- Generator: Sketch 58 (84663) - https://sketch.com -->
    <title>ICON_在线客服-normal</title>
    <desc>Created with Sketch.</desc>
    <g id="页面-1" stroke="none" stroke-width="1" fill="none" fill-rule="evenodd">
        <g id="画板" transform="translate(-89.000000, -187.000000)">
            <g id="ICON_在线客服" transform="translate(80.000000, 178.000000)">
                <g>
                    <rect id="矩形" stroke="#979797" fill="#D8D8D8" opacity="0" x="0.5" y="0.5" width="31" height="31"></rect>
                    <path d="M21.2397917,13.3862442 L21.215,13.3862442 C20.6404167,10.7904108 18.2283333,8.94999417 15.4647917,9.00103584 C12.70125,9.05207751 10.3620833,10.9785358 9.89104167,13.5918692 C9.37770833,13.6735358 9,14.1168692 9,14.6374942 L9,16.7287442 C9.013125,17.3179108 9.50020833,17.7860358 10.089375,17.7743692 C10.4058333,17.7699942 10.7047917,17.6285358 10.9060417,17.3849942 C11.3960417,18.6172858 12.3629167,19.6016608 13.5864583,20.1120775 C13.6025,20.0829108 13.62,20.0552025 13.6404167,20.0289525 C13.6535417,20.0070775 13.6754167,19.9910358 13.7002083,19.9852025 C13.7191667,19.9852025 13.7366667,19.9924942 13.7527083,20.0027025 C12.9404382,19.2983528 12.3977022,18.3340043 12.2170833,17.2741608 C12.1427083,16.6266608 12.5685417,16.0287442 13.2029167,15.8858275 C14.140625,15.7152025 15.0710417,15.5256192 16.00875,15.3622858 C16.5614583,15.2849942 17.0354167,14.9277025 17.2585417,14.4158275 C17.3577083,14.1839525 17.4189583,13.9374942 17.4408333,13.6866608 C17.448125,13.6414525 17.483125,13.6049942 17.526875,13.5962442 C17.5720833,13.5860358 17.6202083,13.6035358 17.6464583,13.6399942 L17.67125,13.6239525 C18.0416667,14.1474942 18.760625,15.2922858 18.8772917,16.4997858 C18.996875,17.8822858 18.93125,18.8331192 17.8360417,19.8029108 C17.82,19.8189525 17.81125,19.8408275 17.81125,19.8627025 C17.8127083,19.8918692 17.8272917,19.9181192 17.8520833,19.9327025 L17.9220833,19.9327025 L17.96875,19.9064525 C19.07125,19.3172858 19.9054167,18.3285358 20.300625,17.1429108 C20.466875,17.3777025 20.71625,17.5381192 20.9977083,17.5920775 C20.5383333,19.6322858 18.655625,20.9112442 16.3266667,21.1052025 C16.1516667,20.6881192 15.706875,20.4518692 15.2635417,20.5422858 C14.7735417,20.6210358 14.438125,21.0818692 14.516875,21.5718692 C14.5810417,21.9743692 14.9077083,22.2835358 15.3116667,22.3243692 C15.7579167,22.3914525 16.1910417,22.1347858 16.3441667,21.7089525 C19.040625,21.4974942 21.2033333,19.9472858 21.6554167,17.5249942 C22.0608333,17.3674942 22.330625,16.9795775 22.335,16.5449942 L22.335,14.4522858 C22.3335417,14.1679108 22.216875,13.8952025 22.0097917,13.6997858 C21.7983333,13.4985358 21.516875,13.3877025 21.2252083,13.3891608 L21.2397917,13.3862442 L21.2397917,13.3862442 Z M20.2452083,13.9899942 C19.2083333,11.4102025 16.2770833,10.1589525 13.6972917,11.1943692 C12.4314583,11.7033275 11.4266667,12.7022858 10.911875,13.9652025 C10.8754167,13.9243692 10.8360417,13.8864525 10.7952083,13.8499942 C11.1641667,11.5954108 13.1839583,9.93291084 15.5610417,9.92412622 C17.938125,9.91541084 19.9695833,11.5662442 20.3545833,13.8179108 C20.3122917,13.8733275 20.2758333,13.9302025 20.2452083,13.9899942 L20.2452083,13.9899942 Z" id="形状" fill="#626E88" fill-rule="nonzero"></path>
                </g>
            </g>
        </g>
    </g>
</svg>