<?xml version="1.0" encoding="UTF-8"?>
<svg width="33px" height="35px" viewBox="0 0 33 35" version="1.1" xmlns="http://www.w3.org/2000/svg" xmlns:xlink="http://www.w3.org/1999/xlink">
    <!-- Generator: Sketch 58 (84663) - https://sketch.com -->
    <title>在线咨询-42px</title>
    <desc>Created with Sketch.</desc>
    <defs>
        <filter x="-48.0%" y="-44.4%" width="196.0%" height="188.9%" filterUnits="objectBoundingBox" id="filter-1">
            <feOffset dx="0" dy="2" in="SourceAlpha" result="shadowOffsetOuter1"></feOffset>
            <feGaussianBlur stdDeviation="2" in="shadowOffsetOuter1" result="shadowBlurOuter1"></feGaussianBlur>
            <feColorMatrix values="0 0 0 0 0   0 0 0 0 0   0 0 0 0 0  0 0 0 0.2 0" type="matrix" in="shadowBlurOuter1" result="shadowMatrixOuter1"></feColorMatrix>
            <feMerge>
                <feMergeNode in="shadowMatrixOuter1"></feMergeNode>
                <feMergeNode in="SourceGraphic"></feMergeNode>
            </feMerge>
        </filter>
    </defs>
    <g id="页面-1" stroke="none" stroke-width="1" fill="none" fill-rule="evenodd">
        <g id="画板" transform="translate(-206.000000, -216.000000)">
            <g id="在线咨询-42px" transform="translate(201.000000, 210.000000)">
                <rect id="矩形" fill="#D8D8D8" opacity="0" x="0" y="0" width="42" height="42"></rect>
                <g id="客服-(1)" filter="url(#filter-1)" transform="translate(9.000000, 8.000000)" fill-rule="nonzero">
                    <path d="M12.6522051,18 L10.0939073,15.963398 C10.0939073,15.963398 3.88454363,13.4771856 5.17700542,5.98070977 C5.99574946,1.23754171 10.055078,0.00890315621 12.4957784,0 C14.9331506,0.00667738346 18.9969167,1.23754175 19.8145514,5.9762582 C21.1081226,13.4805243 15.2105029,15.9600594 15.2105029,15.9600594 L12.6522051,18 Z" id="路径" fill="#484848"></path>
                    <path d="M13.0031287,1.66405138 C13.1199344,1.66922313 13.1856377,1.67853226 13.1856377,1.67853223 C13.1856377,1.6785322 17.9830155,0.982416075 19.3940703,7.99219211 C19.8571216,8.05839036 20,7.68188772 20,7.68188772 C20,7.68188772 19.4556019,1 13.182509,1 L13,1.00206868 L13.0031287,1.66405138 L13.0031287,1.66405138 Z" id="路径" fill="#74797D"></path>
                    <path d="M19.5407492,9.01454176 C20.0041085,9.10981455 20.1411234,9.62980799 19.8396907,10.1738423 C19.5407492,10.7169861 18.9216911,11.08205 18.4595773,10.9841061 C17.996218,10.8897237 17.8592031,10.3697302 18.1593902,9.82569596 C18.4583317,9.28255211 19.0773898,8.91926901 19.5419947,9.01543218 L19.5407492,9.01454176 Z" id="路径" fill="#FFDDB8"></path>
                    <path d="M5.45798977,9.01555464 C4.99572356,9.11202862 4.85990951,9.62947987 5.15894964,10.1732422 C5.45798977,10.7170046 6.07725205,11.0809746 6.54201023,10.9845006 C7.00427644,10.8880266 7.14009049,10.3705754 6.84105036,9.82681301 C6.54450225,9.28129659 5.92523997,8.9190807 5.45798977,9.01555464 L5.45798977,9.01555464 Z" id="路径" fill="#F5D4B1"></path>
                    <path d="M13.0038596,27 L24,27 C24,27 23.4532164,20.1555496 15.9436257,19.0922822 C13.8980117,18.9587059 13,19.0094649 13,19.0094649 L13,19.0174794 C13.0051462,24.6944728 13.0051462,27 13.0051462,27 L13.0038596,27 Z" id="路径" fill="#3B5E7C"></path>
                    <path d="M12,27 L1,27 C1,27 1.54922464,20.1566761 9.056156,19.0921591 C11.0992716,18.958761 12,19.0094522 12,19.0094523 L12,27 L12,27 Z" id="路径" fill="#283F53"></path>
                    <polygon id="路径" fill="#FFDDB8" points="10 16 15 16 15 24 10.0011026 24"></polygon>
                    <polygon id="路径" fill="#E5C6A5" points="10 16 15 16 15 17.3553997 10.0011026 20 10.0011026 16"></polygon>
                    <path d="M12,26.9937545 C12,26.9937545 13.2652085,27 13.8660203,27 C14.1125737,26.6677373 17.0244997,20.173626 16.9998443,20.06995 C16.9881655,20.0074946 13.1808612,20.6795147 13.1808612,20.6795147 L12,20 L12,26.9925054 L12,26.9937545 Z" id="路径" fill="#FFFFFF"></path>
                    <path d="M13.4892045,24.5620764 C13.4892045,24.5620764 13.5400623,25.4944288 13.9283583,24.6383065 C14.3166542,23.786582 13,20 13,20 L13.4892045,24.5635423 L13.4892045,24.5620764 Z" id="路径" fill="#3B5E7C"></path>
                    <path d="M13,26.9936862 C13,26.9936862 11.7347915,27 11.1339797,27 C10.8874263,26.6641028 7.97550034,20.1090573 8.00015567,20.0042473 C8.01313215,19.9411087 11.9086766,20.6028009 11.9086766,20.6028009 L12.9987024,20.0484443 L12.9987024,26.9936862 L13,26.9936862 Z" id="路径" fill="#E0ECFF"></path>
                    <path d="M15.026763,18 L16.9830076,19.3422082 C16.9830076,19.3422082 17.0212404,23.1401604 16.9830076,22.9959973 C16.942226,22.8543198 12,19.7150439 12,19.7150439 L15.026763,18 Z" id="路径" fill="#FFFFFF"></path>
                    <path d="M13,20 C13,20 11.6833458,23.7877984 12.0716417,24.6397964 C12.4599376,25.4917945 12.5107955,24.5650083 12.5107956,24.5650083 L13,20 Z" id="路径" fill="#283F53"></path>
                    <path d="M9.97325357,18 L8.01805666,19.3426927 C8.01805666,19.3426927 7.97742918,23.1399569 8.01805666,22.9960084 C8.05614491,22.8533008 13,19.7162145 13,19.7162145 L9.97325357,18 Z" id="路径" fill="#FFFFFF"></path>
                    <path d="M13,20.8532057 C13,20.8532057 15.9705882,22.8695315 16,21.5549602 L16,19.2766948 C16,19.2766948 15.7486631,18.6541314 14.6377005,19.2766948 C13.0868984,20.1027183 13.0040107,20.1538879 13.0040107,20.1538879 L13.0040107,20.8532057 L13,20.8532057 Z" id="路径" fill="#3B5E7C"></path>
                    <path d="M13,20.8554217 C13,20.8554217 10.0294118,22.868606 10,21.5550818 L10,19.2760509 C10,19.2760509 10.2513369,18.6549364 11.3622995,19.2760509 C12.9131016,20.1013839 12.9959893,20.1533449 12.9959893,20.1533449 L13,20.8554217 Z" id="路径" fill="#283F53"></path>
                    <path d="M3,22 L3,27 L0,27 C0,27 0.291063827,24.1263158 3,22 Z M25,27 L22,27 L22,22 C24.7089362,24.1263158 25,27 25,27 Z" id="形状" fill="#E0ECFF"></path>
                    <path d="M13,4 C16.4745558,4 19,6.91568298 19,10.5109612 C19,11.7177909 18.6998447,12.8369309 18.1719855,13.8059022 C17.1369674,15.7175379 13.8124892,16.9649241 13,17 L13,17 L12,17 L12,17 C11.192811,16.964936 7.86459604,15.7168746 6.82708078,13.8036918 C6.30361195,12.8350472 6,11.7162846 6,10.5109575 C6,6.91469995 8.52521375,4 12,4 L12,6.222 L13,5.43742268 L13,4 Z" id="形状结合" fill="#F5D4B1"></path>
                    <path d="M14.9989646,3.36696988 C14.9989646,3.36696988 11.983796,7.25430756 6.89362817,9 C5.76190453,7.20180554 6.02697429,5.33251456 6.02697429,5.33251456 C6.02697429,5.33251456 10.4472197,1.89363172 15,3.36696988 L14.9989646,3.36696988 Z" id="路径" fill="#484848"></path>
                    <path d="M15.393456,14.5978303 C15.393456,14.5978303 18.7306467,13.4418155 19.5726638,12 C20.1332168,12.0847547 19.9812024,12.3193084 19.9812024,12.3193084 C19.9812024,12.3193084 18.7413351,13.7059348 15.5989129,14.9358636 C14.3839855,15.1920988 15.393456,14.5978303 15.393456,14.5978303 L15.393456,14.5978303 Z" id="路径" fill="#91959B"></path>
                    <path d="M19.2837506,8.00940504 C18.2030009,7.8826406 18.3164129,9.05546931 18.1705975,10.4302967 C18.023829,11.805124 17.6788277,12.862525 18.7595775,12.9892894 C19.8412802,13.1160538 20.8353031,12.1029689 20.9820716,10.7260803 C21.127887,9.35125299 20.3683125,8.13307763 19.2837506,8.00940504 L19.2837506,8.00940504 Z" id="路径" fill="#484848"></path>
                    <path d="M4.71458058,8.00940504 C5.79667027,7.8826406 5.68407188,9.05546931 5.83006809,10.4302967 C5.97606431,11.805124 6.32149331,12.862525 5.2384494,12.9892894 C4.15731392,13.1160538 3.16110436,12.1029689 3.0179708,10.7260803 C2.87197457,9.35125299 3.63153664,8.13307763 4.71458058,8.00940504 L4.71458058,8.00940504 Z" id="路径" fill="#333333"></path>
                    <path d="M13.8479103,14.0349087 C14.3944616,13.89024 14.9060337,14.208511 14.988235,14.7437848 C15.0721853,15.2751132 14.6979069,15.8248539 14.1513556,15.9668922 C13.6048042,16.1063001 13.0932322,15.7932898 13.0119053,15.2567008 C12.9270805,14.7253725 13.3048569,14.1756318 13.8479103,14.0349087 Z" id="路径" fill="#484848"></path>
                    <path d="M12,1.66405138 C11.8821162,1.66922313 11.8174367,1.67853226 11.8174367,1.67853223 C11.8174367,1.6785322 7.01862892,0.982416075 5.6071535,7.99219211 C5.14396423,8.05839036 5,7.68188772 5,7.68188772 C5,7.68188772 5.54247391,1 11.8174367,1 L12,1.00206868 L12,1.66405138 L12,1.66405138 Z" id="路径" fill="#5F6366"></path>
                </g>
            </g>
        </g>
    </g>
</svg>