<?xml version="1.0" encoding="UTF-8"?>
<svg width="19px" height="24px" viewBox="0 0 19 24" version="1.1" xmlns="http://www.w3.org/2000/svg" xmlns:xlink="http://www.w3.org/1999/xlink">
    <!-- Generator: Sketch 58 (84663) - https://sketch.com -->
    <title>phone</title>
    <desc>Created with Sketch.</desc>
    <g id="页面-1" stroke="none" stroke-width="1" fill="none" fill-rule="evenodd">
        <g id="联系我们" transform="translate(-359.000000, -480.000000)" fill="#626E88" fill-rule="nonzero">
            <g id="phone" transform="translate(359.000000, 480.000000)">
                <path d="M12.0207992,16.7281164 C12.0637444,16.7008239 12.5348628,16.3990453 12.6726761,16.3140961 C12.9274943,16.1563585 13.1378914,16.0380741 13.348264,15.9410145 C14.8268733,15.2524828 16.1306518,15.7393168 17.8552001,17.8018652 C18.9219436,19.0788224 19.2375147,20.2117134 18.8256243,21.2202271 C18.5189325,21.9739687 17.9277839,22.494163 16.8758719,23.1371735 C16.8077401,23.1781375 16.2017599,23.5390835 16.0462126,23.6376538 C13.5971544,25.1845651 7.98353028,21.6433366 3.94623681,15.5922041 C-0.101411721,9.52588957 -1.14889632,3.05766509 1.33275204,1.48801839 L1.6601786,1.27569574 L2.01574338,1.03910189 C3.27064897,0.208014711 4.07364589,-0.124102924 5.02628697,0.041187977 C5.97747688,0.208014711 6.78640151,0.928396016 7.47089323,2.24022417 C8.91393627,5.0155503 8.59538899,6.33196077 6.73897976,7.5285259 C6.60566756,7.61649641 6.13154839,7.90921111 6.08710279,7.93801428 C5.63226716,8.22617184 6.40267391,10.1567897 8.19390283,12.841124 C10.0073422,15.5557973 11.5229691,17.0405452 12.0192988,16.7281164 L12.0207992,16.7281164 Z" id="路径"></path>
            </g>
        </g>
    </g>
</svg>