<?xml version="1.0" encoding="UTF-8"?>
<svg width="14px" height="14px" viewBox="0 0 14 14" version="1.1" xmlns="http://www.w3.org/2000/svg" xmlns:xlink="http://www.w3.org/1999/xlink">
    <!-- Generator: Sketch 58 (84663) - https://sketch.com -->
    <title>消息已读</title>
    <desc>Created with Sketch.</desc>
    <g id="页面-1" stroke="none" stroke-width="1" fill="none" fill-rule="evenodd">
        <g id="编组-9备份-3" transform="translate(-520.000000, -302.000000)">
            <g id="编组-11备份" transform="translate(230.000000, 238.000000)">
                <g id="消息已读" transform="translate(290.000000, 64.000000)">
                    <g id="编组-7">
                        <path d="M10.0188779,4.17617844 L5.83683304,8.55646604 L3.9856153,6.58525583 C3.76382967,6.34977698 3.40192637,6.34455902 3.17400244,6.57355392 C2.94599871,6.80251248 2.94200256,7.17937301 3.16240069,7.41334406 L5.42122664,9.81991215 C5.42242783,9.82199915 5.42522866,9.82199915 5.42603141,9.8232538 C5.42722674,9.82450845 5.42763104,9.82827241 5.42882638,9.82827241 C5.46562385,9.86712376 5.51122811,9.8901053 5.55442999,9.9160062 C5.57562955,9.92854047 5.5932314,9.9469257 5.61522786,9.95611832 C5.75350877,10.0141904 5.90784951,10.0146395 6.04643803,9.95737297 C6.06963567,9.94776417 6.08643477,9.92896277 6.10723589,9.91726085 C6.15124052,9.8921923 6.19523928,9.87004924 6.23163246,9.83161406 C6.23283951,9.83161406 6.23323795,9.82826629 6.23523603,9.82826629 C6.23621471,9.82619098 6.23774167,9.82445165 6.23963649,9.8232538 L10.8348854,5.01221075 C11.056889,4.77823358 11.0548909,4.40220541 10.829688,4.17199831 C10.6039985,3.9410482 10.2423738,3.94291256 10.0188779,4.17617844 L10.0188779,4.17617844 Z" id="路径" fill="#414D68" fill-rule="nonzero"></path>
                        <circle id="椭圆形" stroke="#414D68" cx="7" cy="7" r="6.5"></circle>
                    </g>
                </g>
            </g>
        </g>
    </g>
</svg>