<?xml version="1.0" encoding="UTF-8"?>
<svg width="29px" height="36px" viewBox="0 0 29 36" version="1.1" xmlns="http://www.w3.org/2000/svg" xmlns:xlink="http://www.w3.org/1999/xlink">
    <!-- Generator: Sketch 58 (84663) - https://sketch.com -->
    <title>自助服务-42px</title>
    <desc>Created with Sketch.</desc>
    <defs>
        <filter x="-57.1%" y="-42.9%" width="214.3%" height="185.7%" filterUnits="objectBoundingBox" id="filter-1">
            <feOffset dx="0" dy="2" in="SourceAlpha" result="shadowOffsetOuter1"></feOffset>
            <feGaussianBlur stdDeviation="2" in="shadowOffsetOuter1" result="shadowBlurOuter1"></feGaussianBlur>
            <feColorMatrix values="0 0 0 0 0   0 0 0 0 0   0 0 0 0 0  0 0 0 0.2 0" type="matrix" in="shadowBlurOuter1" result="shadowMatrixOuter1"></feColorMatrix>
            <feMerge>
                <feMergeNode in="shadowMatrixOuter1"></feMergeNode>
                <feMergeNode in="SourceGraphic"></feMergeNode>
            </feMerge>
        </filter>
    </defs>
    <g id="页面-1" stroke="none" stroke-width="1" fill="none" fill-rule="evenodd">
        <g id="画板" transform="translate(-364.000000, -215.000000)">
            <g id="自助服务-42px" transform="translate(357.000000, 210.000000)">
                <rect id="矩形" fill="#D8D8D8" opacity="0" x="0" y="0" width="42" height="42"></rect>
                <g id="自助机" filter="url(#filter-1)" transform="translate(11.000000, 7.000000)">
                    <rect id="矩形" fill="#FAFFFF" x="1" y="2" width="18" height="22"></rect>
                    <path d="M20.838302,18.8542086 C20.3853502,18.0778403 19.6412334,18.6213063 18.9941999,18.3884039 C18.4927207,18.2020549 18.0236214,18.5902255 17.764808,18.5436722 C17.5059663,18.4970645 17.0045153,18.2331086 16.6486186,18.1710013 C16.308926,18.108894 15.7589475,18.2331086 15.3059958,18.2331086 C14.8530723,18.2331086 14.885424,16.2766746 14.885424,16.2766746 C14.885424,16.2766746 14.5942589,13.1867555 14.4971756,11.9445554 C14.4001206,10.7800437 12.8148319,10.5936947 12.6854535,11.9445554 C12.5883702,13.7457211 12.4428159,16.8046138 12.3619367,18.0002062 C12.2972051,19.1957987 10.8413514,18.9318156 10.6634172,18.9163159 C10.4854547,18.9007891 9.6928387,18.9473695 10.1295863,20.0187475 C10.5663339,21.0901525 11.3751541,23.5434448 11.908985,24.5527154 C12.4266118,25.5464592 13.0736736,26.0743711 12.7825086,27.0991686 C12.5236669,27.9997514 13.4942454,27.9997514 13.4942454,27.9997514 L18.6059798,27.9997514 C19.2530133,28.0152783 18.9456724,27.3010444 18.9133207,26.5091493 C18.8971449,25.7172542 19.1074308,24.847725 19.2691892,24.3974471 C19.4309475,23.9471421 20.5147852,21.8509668 20.5147852,21.8509668 C20.5147852,21.8509668 21.3397529,19.7237378 20.838302,18.8541815 L20.838302,18.8542086 Z" id="路径" fill="#F5BF8D" fill-rule="nonzero"></path>
                    <path d="M9.84028798,23.0733684 L4.10540042,23.0733684 C3.00316685,23.0733684 2.10859522,22.2256742 2.10859522,21.1929746 L2.10859522,3.77625398 C2.10859522,2.74358137 3.00316685,1.89586024 4.10540042,1.89586024 L15.9105177,1.89586024 C17.0127792,1.89586024 17.9073229,2.74355442 17.9073229,3.77625398 L17.9073229,16.5691073 C17.9073229,17.1239617 20,17.355151 20,16.8619471 L20,2.49689859 C20,1.1251483 18.8018945,0 17.3322591,0 L2.66774089,0 C1.1980775,0 0,1.12514833 0,2.49692554 L0,22.5030744 C0,23.8748517 1.19807753,25 2.66774089,25 L10.6070397,25 C11.2459995,25 10.2715858,23.0733414 9.84026005,23.0733414 L9.84028798,23.0733684 Z M7.73160897,0.693621853 L12.2683631,0.693621853 C12.491999,0.693621853 12.667713,0.832335438 12.667713,1.00187429 C12.667713,1.17141314 12.491999,1.31012673 12.2683631,1.31012673 L7.73163687,1.31012673 C7.50800093,1.31012673 7.332287,1.17141314 7.332287,1.00187429 C7.332287,0.832335438 7.52397495,0.693621853 7.73163687,0.693621853 L7.73160897,0.693621853 Z" id="形状" fill="#000000" fill-rule="nonzero"></path>
                    <path d="M9.97603261,7.45822052 C9.97603261,7.1241014 9.70440238,6.84007093 9.38483743,6.84007093 L4.59122312,6.84007093 C4.27165815,6.84007093 4,7.1241014 4,7.45822052 L4,7.5751622 C4,7.90928133 4.27163024,8.19331177 4.59122312,8.19331177 L9.38483743,8.19331177 C9.70440241,8.19331177 9.97603261,7.9092813 9.97603261,7.5751622 L9.97603261,7.45822052 Z" id="路径" fill="#F0B82C" fill-rule="nonzero"></path>
                    <path d="M9.38483743,9.64675916 L4.59122312,9.64675916 C4.27165815,9.64675916 4,9.93076042 4,10.2649087 L4,10.3818504 C4,10.7159696 4.27163024,11 4.59122312,11 L9.38483743,11 C9.70440241,11 9.97603261,10.7159695 9.97603261,10.3818504 L9.97603261,10.2649087 C9.97603261,9.9307896 9.70440238,9.64675916 9.38483743,9.64675916 Z" id="路径" fill="#23D54C" fill-rule="nonzero"></path>
                    <path d="M16,4.73506207 L16,4.61812038 C16,4.28400126 15.7283698,4 15.4088048,4 L4.59122312,4 C4.27165815,4 4,4.28400126 4,4.61812038 L4,4.73506207 C4,5.06918119 4.27163024,5.35321163 4.59122312,5.35321163 L15.4088048,5.35321163 C15.7283698,5.36991758 16,5.08591633 16,4.73506207 L16,4.73506207 Z" id="路径" fill="#5FCEB1" fill-rule="nonzero"></path>
                </g>
            </g>
        </g>
    </g>
</svg>