<?xml version="1.0" encoding="UTF-8"?>
<svg width="226px" height="134px" viewBox="0 0 226 134" version="1.1" xmlns="http://www.w3.org/2000/svg" xmlns:xlink="http://www.w3.org/1999/xlink">
    <!-- Generator: Sketch 58 (84663) - https://sketch.com -->
    <title>提交成功</title>
    <desc>Created with Sketch.</desc>
    <g id="页面-1" stroke="none" stroke-width="1" fill="none" fill-rule="evenodd">
        <g id="画板" transform="translate(-480.000000, -126.000000)">
            <g id="提交成功" transform="translate(480.000000, 126.000000)">
                <path d="M7.5,96 C3.35786438,96 5.07265313e-16,92.6421356 0,88.5 C-5.07265313e-16,84.3578644 3.35786438,81 7.5,81 L41.5001834,81.0004871 C42.4419382,79.7469128 43,78.1886276 43,76.5 C43,72.4390827 39.7725256,69.1319825 35.7427311,69.0038536 L35.5,69 L13.5,69 C9.35786438,69 6,65.6421356 6,61.5 C6,57.3578644 9.35786438,54 13.5,54 L100.5,54 C105.746705,54 110,49.7467051 110,44.5 C110,39.3437553 105.892106,35.1469606 100.770479,35.0037764 L100.5,35 L60,35 C56.6862915,35 54,32.3137085 54,29 C54,25.6862915 56.6862915,23 60,23 L179,23 C182.313708,23 185,25.6862915 185,29 C185,32.3137085 182.313708,35 179,35 L208.5,35 C213.746705,35 218,39.2532949 218,44.5 C218,49.7467051 213.746705,54 208.5,54 L129.5,54 C133.642136,54 137,57.3578644 137,61.5 C137,65.6421356 133.642136,69 129.5,69 L85.5,69 C81.3578644,69 78,72.3578644 78,76.5 C78,78.1890461 78.5583385,79.7476853 79.5005169,81.0014191 L123.5,81 C125.953954,81 128.132644,82.1785485 129.50093,84.0005068 L218.5,84 C222.642136,84 226,87.3578644 226,91.5 C226,95.6421356 222.642136,99 218.5,99 L198.5,99 C194.357864,99 191,102.357864 191,106.5 C191,110.560917 194.227474,113.868018 198.257269,113.996146 L198.5,114 L218.5,114 C222.642136,114 226,117.357864 226,121.5 C226,125.642136 222.642136,129 218.5,129 L137.5,129 C133.357864,129 130,125.642136 130,121.5 C130,117.357864 133.357864,114 137.5,114 L158.5,114 C162.560917,114 165.868018,110.772526 165.996146,106.742731 L166,106.5 L166,103.5 C166,99.4390827 162.772526,96.1319825 158.742731,96.0038536 L158.5,96 L96.4998166,96.0004871 L7.5,96 Z M214.5,65 C218.642136,65 222,68.3578644 222,72.5 C222,76.6421356 218.642136,80 214.5,80 L189.5,80 C185.357864,80 182,76.6421356 182,72.5 C182,68.3578644 185.357864,65 189.5,65 L214.5,65 Z" id="形状结合" fill="#E2F8FF"></path>
                <g id="编组-7" transform="translate(55.000000, 0.000000)">
                    <rect id="矩形" stroke="#979797" fill="#FFEAF0" transform="translate(58.500000, 68.000000) rotate(8.000000) translate(-58.500000, -68.000000) " x="15.5" y="11.5" width="86" height="113" rx="6"></rect>
                    <rect id="矩形备份-7" stroke="#979797" fill="#FDFAFE" transform="translate(58.500000, 68.000000) rotate(-17.000000) translate(-58.500000, -68.000000) " x="15.5" y="11.5" width="86" height="113" rx="6"></rect>
                    <path d="M82.7573271,11.5 L82.9820056,11.5 L82.6081401,11.3320009 L82.7573271,11.5 Z" id="形状结合" stroke="#979797" fill="#FDFAFE"></path>
                    <circle id="椭圆形" fill-opacity="0.05" fill="#30CC70" cx="58.5" cy="68.5" r="33.5"></circle>
                    <circle id="椭圆形备份-2" fill-opacity="0.1" fill="#30CC70" cx="58.5" cy="68.5" r="27.5"></circle>
                    <circle id="椭圆形备份" fill="#30CC70" cx="58.5" cy="68.5" r="21.5"></circle>
                    <path d="M66.4245545,62.4404461 L55.4466867,73.3911651 L50.5872402,68.4631396 C50.0050529,67.8744425 49.0550567,67.8613976 48.4567564,68.4338848 C47.8582466,69.0062812 47.8477567,69.9484325 48.4263018,70.5333601 L54.3557199,76.5497804 C54.3588731,76.5549979 54.3662252,76.5549979 54.3683324,76.5581345 C54.3714702,76.5612711 54.3725315,76.570681 54.3756692,76.570681 C54.4722626,76.6678094 54.5919738,76.7252632 54.7053787,76.7900155 C54.7610276,76.8213512 54.8072324,76.8673143 54.8649731,76.8902958 C55.2279605,77.0354761 55.633105,77.0365988 55.9968998,76.8934324 C56.0577936,76.8694104 56.1018913,76.8224069 56.1564942,76.7931521 C56.2720064,76.7304808 56.3875031,76.6751231 56.4830352,76.5790352 C56.4862037,76.5790352 56.4872496,76.5706657 56.4924946,76.5706657 C56.4950636,76.5654775 56.4990719,76.5611291 56.5040458,76.5581345 L68.5665741,64.5305269 C69.1493336,63.945584 69.1440887,63.0055135 68.5529311,62.4299958 C67.960496,61.8526205 67.0112312,61.8572814 66.4245545,62.4404461 L66.4245545,62.4404461 Z" id="路径" fill="#FFFFFF" fill-rule="nonzero"></path>
                    <polygon id="路径-8" stroke="#979797" fill="#D8D8D8" points="82.9820056 12.5482227 82.9820056 32.4161271 100.837932 32.4161271"></polygon>
                </g>
                <path d="M25,14 C26.1045695,14 27,14.8954305 27,16 L27,20 L31,20 C32.1045695,20 33,20.8954305 33,22 C33,23.1045695 32.1045695,24 31,24 L27,24 L27,28 C27,29.1045695 26.1045695,30 25,30 C23.8954305,30 23,29.1045695 23,28 L23,24 L19,24 C17.8954305,24 17,23.1045695 17,22 C17,20.8954305 17.8954305,20 19,20 L23,19.999 L23,16 C23,14.8954305 23.8954305,14 25,14 Z" id="形状结合" fill="#F7B40A"></path>
                <circle id="椭圆形" fill="#4ECEB0" cx="32.5" cy="44.5" r="2.5"></circle>
                <circle id="椭圆形备份-3" fill="#0093F9" cx="179.5" cy="121.5" r="3.5"></circle>
                <circle id="椭圆形" stroke="#3BC4FC" stroke-width="3" cx="173.5" cy="7.5" r="6"></circle>
            </g>
        </g>
    </g>
</svg>