<?xml version="1.0" encoding="UTF-8"?>
<svg width="27px" height="26px" viewBox="0 0 27 26" version="1.1" xmlns="http://www.w3.org/2000/svg" xmlns:xlink="http://www.w3.org/1999/xlink">
    <!-- Generator: Sketch 58 (84663) - https://sketch.com -->
    <title>team</title>
    <desc>Created with Sketch.</desc>
    <g id="页面-1" stroke="none" stroke-width="1" fill="none" fill-rule="evenodd">
        <g id="联系我们" transform="translate(-351.000000, -413.000000)" fill="#626E88" fill-rule="nonzero">
            <g id="team" transform="translate(351.000000, 413.000000)">
                <path d="M10,11.2830116 C7.83826172,8.34437804 7.76597989,4.19127772 9.82697138,1.16742408 C7.48580786,0.497652806 5.06372708,1.89195652 4.25583376,4.37532711 C3.44794045,6.85869769 4.52417204,9.5983765 6.73132634,10.6799907 C2.67618805,11.6076903 -0.165830949,15.5887304 0.00751749801,20.0921078 C0.00751749801,21.7054562 0.653256453,21.9941674 3.06990011,22 C3.71563907,15.8900788 6.75787232,12.7683679 10,11.2830116 Z" id="路径"></path>
                <path d="M18.3815405,12.2281603 C20.839454,10.818002 22.0848229,7.80371608 21.4039649,4.91389388 C20.7231069,2.02407168 18.2898928,0 15.4998375,0 C12.7097823,0 10.2765681,2.0256881 9.59571011,4.91389388 C8.91485213,7.80209967 10.160221,10.818002 12.6181345,12.2281603 C8.64738382,13.0554402 4,15.8679979 4,23.8340017 C4,26.0239173 6.66493338,26 15.5001625,26 C24.3009425,26 27,26 27,23.8340017 C26.999675,15.8482776 22.3389665,13.0502676 18.3815405,12.2281603 L18.3815405,12.2281603 Z" id="路径"></path>
            </g>
        </g>
    </g>
</svg>