<?xml version="1.0" encoding="UTF-8"?>
<svg width="32px" height="29px" viewBox="0 0 32 29" version="1.1" xmlns="http://www.w3.org/2000/svg" xmlns:xlink="http://www.w3.org/1999/xlink">
    <!-- Generator: Sketch 58 (84663) - https://sketch.com -->
    <title>电话-42px</title>
    <desc>Created with Sketch.</desc>
    <defs>
        <filter x="-50.0%" y="-57.1%" width="200.0%" height="214.3%" filterUnits="objectBoundingBox" id="filter-1">
            <feOffset dx="0" dy="2" in="SourceAlpha" result="shadowOffsetOuter1"></feOffset>
            <feGaussianBlur stdDeviation="2" in="shadowOffsetOuter1" result="shadowBlurOuter1"></feGaussianBlur>
            <feColorMatrix values="0 0 0 0 0   0 0 0 0 0   0 0 0 0 0  0 0 0 0.2 0" type="matrix" in="shadowBlurOuter1" result="shadowMatrixOuter1"></feColorMatrix>
            <feMerge>
                <feMergeNode in="shadowMatrixOuter1"></feMergeNode>
                <feMergeNode in="SourceGraphic"></feMergeNode>
            </feMerge>
        </filter>
        <linearGradient x1="50%" y1="0%" x2="50%" y2="99.1633235%" id="linearGradient-2">
            <stop stop-color="#827975" offset="0%"></stop>
            <stop stop-color="#5F5A5C" offset="20.4787796%"></stop>
            <stop stop-color="#2D2A2D" offset="38.3419552%"></stop>
            <stop stop-color="#636E87" offset="100%"></stop>
        </linearGradient>
        <linearGradient x1="50%" y1="0%" x2="50%" y2="100%" id="linearGradient-3">
            <stop stop-color="#A39F9F" offset="0%"></stop>
            <stop stop-color="#342D30" offset="36.114337%"></stop>
            <stop stop-color="#867D76" offset="58.9447846%"></stop>
            <stop stop-color="#433E3F" offset="80.5584882%"></stop>
            <stop stop-color="#423C3F" offset="100%"></stop>
        </linearGradient>
    </defs>
    <g id="页面-1" stroke="none" stroke-width="1" fill="none" fill-rule="evenodd">
        <g id="画板" transform="translate(-258.000000, -219.000000)">
            <g id="电话-42px" transform="translate(253.000000, 210.000000)">
                <rect id="矩形" fill="#D8D8D8" opacity="0" x="0" y="0" width="42" height="42"></rect>
                <g id="编组" filter="url(#filter-1)" transform="translate(9.000000, 11.000000)">
                    <path d="M16.4519697,7.40608295 C16.7870637,7.80589663 17.1381145,8.20571032 17.5210789,8.62151655 L18.5901882,9.85294268 L19.8029091,11.2123092 C20.2603916,11.7231959 20.6917786,12.2569637 21.0954143,12.8115639 C21.4064668,13.2282498 21.6788666,13.6725586 21.9092138,14.1389454 C22.0922548,14.4882765 22.2315998,14.8589039 22.324092,15.2424311 C22.3918384,15.5687708 22.4292313,15.9007057 22.43579,16.2339691 L22.43579,17.8332238 C22.4425433,18.2766612 22.3611788,18.7170121 22.1964372,19.1286201 C22.045294,19.5027944 21.8169006,19.8407007 21.5262493,20.1201581 C21.254883,20.3976938 20.9288247,20.6155522 20.5688381,20.75986 C20.2126656,20.9201366 19.8263219,21.0019411 19.4359014,20.9997482 L4.69176824,20.9997482 C4.2730889,21.0047802 3.85691491,20.9343599 3.46309047,20.7918451 C3.08365224,20.6535517 2.73227388,20.447671 2.42589496,20.1841283 C2.12624173,19.905589 1.8872155,19.568026 1.72379337,19.1925903 C1.54083008,18.802552 1.44810208,18.3761424 1.45237564,17.9451716 L1.45237564,16.1220212 C1.46776194,15.7559407 1.51582621,15.3919761 1.59613854,15.034528 C1.68355127,14.651723 1.81752729,14.2811221 1.9950599,13.9310423 C2.21791313,13.492621 2.47959227,13.0751387 2.77694576,12.6836236 C3.1767734,12.1815659 3.60288798,11.7011147 4.05349408,11.2442943 L5.3300424,9.88492778 L6.5108496,8.65350163 L7.70761368,7.40608295 L16.4519697,7.40608295 Z M11.9521369,10.4286293 C11.5463981,10.4277827 11.1446955,10.509391 10.7713297,10.6685626 C10.4104897,10.8201911 10.080547,11.037031 9.79796155,11.3082645 C9.52634272,11.5845962 9.30972476,11.91025 9.15968739,12.2678173 C8.99957595,12.6416141 8.91809491,13.0444864 8.92028962,13.4512658 C8.91944485,13.8579122 9.00087105,14.2605133 9.15968739,14.6347143 C9.45001317,15.3647139 10.0270025,15.9429939 10.7553728,16.2339691 C11.1287387,16.3931407 11.5304413,16.474749 11.93618,16.4738573 L11.9521369,16.4898949 C12.3580084,16.4920945 12.7599815,16.4104312 13.1329441,16.2499616 C13.4897134,16.0995886 13.8146403,15.8824861 14.0903553,15.6102597 C14.3609835,15.3270422 14.5773394,14.9963614 14.7286295,14.6347143 C14.8874458,14.2605133 14.968872,13.8579122 14.9680272,13.4512658 C14.9702219,13.0444864 14.8887409,12.6416141 14.7286295,12.2678173 C14.4305394,11.5429748 13.8561689,10.9673195 13.1329441,10.6685626 C12.7599815,10.508093 12.3580084,10.4264297 11.9521369,10.4286293 Z" id="形状结合" fill="url(#linearGradient-2)" fill-rule="nonzero"></path>
                    <path d="M23.9357343,4.51143188 L23.9357343,6.01473134 C23.9450937,6.41457427 23.7823184,6.79911702 23.4889424,7.07023946 C23.2121858,7.35336247 22.8311871,7.50957423 22.43579,7.50203823 L19.4359014,7.50203823 C19.0410162,7.50636396 18.6610453,7.35105546 18.3818025,7.07118811 C18.1025598,6.79132076 17.9475979,6.4104999 17.951914,6.01473134 L17.951914,4.51143188 L5.98427342,4.51143188 L5.98427342,6.01473134 C5.98858949,6.4104999 5.83362762,6.79132076 5.5543849,7.07118811 C5.27514217,7.35105546 4.89517126,7.50636396 4.500286,7.50203823 L1.50039742,7.50203823 C1.10500031,7.50957423 0.724001583,7.35336247 0.447245053,7.07023946 C0.153869016,6.79911702 -0.00890622835,6.41457427 0.000453136043,6.01473134 L0.000453136043,4.4154766 C-0.00536277971,4.23913594 0.0449319278,4.06551112 0.144064829,3.91970764 C0.244120109,3.78189685 0.362192839,3.65818105 0.495115603,3.55187904 C0.646254002,3.43783038 0.806343914,3.33621331 0.973821234,3.24802065 C1.15604636,3.15887166 1.33198141,3.05734914 1.50039742,2.94416225 L2.69716147,2.32045289 C3.44419148,1.94034638 4.2174161,1.61433116 5.01090532,1.34490751 C6.05212599,0.95825075 7.11837579,0.64300347 8.20227614,0.401347223 C9.44412308,0.127620081 10.7125505,-0.00647957958 11.9840506,0.00153352664 C13.3615036,-0.0160747653 14.7367195,0.118000346 16.0849621,0.401347223 C17.1719138,0.631031823 18.2390328,0.946536083 19.2763329,1.34490751 C20.0125778,1.62247269 20.7227855,1.96499123 21.3985945,2.36843054 L22.4996174,2.99213988 C22.6910997,3.10408772 22.8666251,3.21603555 23.0421505,3.29599828 C23.2096278,3.38419094 23.3697177,3.48580802 23.5208561,3.59985669 C23.6537789,3.70615869 23.7718516,3.82987448 23.8719069,3.96768527 C23.9592373,4.11799089 24.0034156,4.28956454 23.9997939,4.46345425 L23.9357343,4.51143188 Z" id="路径" fill="url(#linearGradient-3)" fill-rule="nonzero"></path>
                    <circle id="椭圆形" stroke="#7B6D65" fill="#D8D8D8" cx="12" cy="14" r="3.5"></circle>
                </g>
            </g>
        </g>
    </g>
</svg>