<?xml version="1.0" encoding="UTF-8"?>
<svg width="32px" height="28px" viewBox="0 0 32 28" version="1.1" xmlns="http://www.w3.org/2000/svg" xmlns:xlink="http://www.w3.org/1999/xlink">
    <!-- Generator: Sketch 58 (84663) - https://sketch.com -->
    <title>企业微信-42px</title>
    <desc>Created with Sketch.</desc>
    <defs>
        <filter x="-50.0%" y="-60.0%" width="200.0%" height="220.0%" filterUnits="objectBoundingBox" id="filter-1">
            <feOffset dx="0" dy="2" in="SourceAlpha" result="shadowOffsetOuter1"></feOffset>
            <feGaussianBlur stdDeviation="2" in="shadowOffsetOuter1" result="shadowBlurOuter1"></feGaussianBlur>
            <feColorMatrix values="0 0 0 0 0   0 0 0 0 0   0 0 0 0 0  0 0 0 0.2 0" type="matrix" in="shadowBlurOuter1" result="shadowMatrixOuter1"></feColorMatrix>
            <feMerge>
                <feMergeNode in="shadowMatrixOuter1"></feMergeNode>
                <feMergeNode in="SourceGraphic"></feMergeNode>
            </feMerge>
        </filter>
    </defs>
    <g id="页面-1" stroke="none" stroke-width="1" fill="none" fill-rule="evenodd">
        <g id="画板" transform="translate(-414.000000, -219.000000)">
            <g id="企业微信-42px" transform="translate(409.000000, 210.000000)">
                <rect id="矩形" fill="#D8D8D8" opacity="0" x="0" y="0" width="42" height="42"></rect>
                <g id="企业微信" filter="url(#filter-1)" transform="translate(9.000000, 11.000000)" fill-rule="nonzero">
                    <path d="M16.0940665,16.092749 C16.0274334,16.1587483 15.9933966,16.2507564 16.0010646,16.3441509 C16.0087326,16.4375454 16.0573227,16.522792 16.1338317,16.5770779 C16.823843,17.2222671 17.2680041,18.0866619 17.39041,19.0225418 C17.5666377,19.6681778 18.1971292,20.0815336 18.8606154,19.9864215 C19.5241015,19.8913093 20.0126155,19.3175416 19.9997518,18.6484869 C19.9868881,17.9794323 19.4766789,17.424803 18.8100254,17.35518 C17.9368813,17.1921861 17.1409742,16.7488912 16.5434126,16.092749 C16.4192412,15.9690837 16.2182379,15.9690837 16.0940665,16.092749 Z" id="路径" fill="#FB6500"></path>
                    <path d="M21.7343288,14.3904498 C21.5198524,14.6046699 21.385528,14.8862553 21.353913,15.1879189 C21.1931024,16.0600011 20.7519799,16.8555495 20.0977484,17.4533662 C20.0098912,17.537615 19.977936,17.6647708 20.0155074,17.780618 C20.0530789,17.8964651 20.1535493,17.9805677 20.274081,17.9970667 C20.3946126,18.0135657 20.5139432,17.9595506 20.5811935,17.858052 C21.225004,17.169336 22.0879234,16.7261285 23.0221948,16.6043194 C23.5592734,16.4587916 23.9481003,15.9924865 23.9952197,15.4374084 C24.0423391,14.8823303 23.7376888,14.3570135 23.2328437,14.1228226 C22.7279987,13.8886318 22.1307661,13.9955773 21.7382915,14.3904498 L21.7343288,14.3904498 Z" id="路径" fill="#0082EF"></path>
                    <path d="M17.3873613,10.3882827 C17.0267731,10.7496965 16.905688,11.2859798 17.0760139,11.7672343 C17.2463398,12.2484888 17.6778312,12.5892562 18.1855128,12.6434537 C19.0583412,12.8045772 19.8545702,13.2465576 20.4528984,13.9020615 C20.5372194,13.9900895 20.664484,14.0221069 20.7804303,13.9844624 C20.8963765,13.9468179 20.9805511,13.846152 20.9970642,13.725386 C21.0135773,13.6046199 20.959516,13.4850572 20.8579306,13.4176762 C20.1688928,12.7724117 19.7253584,11.9079162 19.6031252,10.9719273 C19.477116,10.5173659 19.1190968,10.1639466 18.6628992,10.0437816 C18.2067017,9.92361663 17.7210023,10.0547958 17.3873613,10.3882827 L17.3873613,10.3882827 Z" id="路径" fill="#2DBC00"></path>
                    <path d="M16.4722534,12.0813279 L16.4485373,12.1051123 C15.8041244,12.8169747 14.9286763,13.2763285 13.9781154,13.4013602 C13.5216426,13.5219215 13.1649048,13.87906 13.0438893,14.3366354 C12.9228737,14.7942109 13.0562286,15.2817125 13.3931195,15.6133062 C13.7529224,15.9732731 14.2868154,16.0941495 14.7659249,15.9241171 C15.2450344,15.7540847 15.584283,15.3233368 15.6382389,14.8165299 C15.799992,13.944797 16.2413796,13.1499596 16.8951896,12.5530512 C17.0250782,12.4359241 17.0356962,12.2353751 16.9189056,12.1051123 C16.802115,11.9748496 16.602142,11.9642009 16.4722534,12.0813279 Z" id="路径" fill="#FFCC00"></path>
                    <path d="M8.74079818,0.0687785659 C6.24440418,0.351823046 3.98139593,1.44969254 2.35603089,3.16511363 C1.71005248,3.84270496 1.18493454,4.60606735 0.797347492,5.42089237 C-0.433535138,7.97041642 -0.227858245,11.0056489 1.33496824,13.3547149 C1.77673412,14.0408833 2.50189698,14.8985939 3.16454581,15.5075684 L2.86447842,17.9348892 L2.83113759,18.0378145 C2.82280239,18.0678343 2.82280239,18.1021428 2.81863479,18.1321626 L2.81029958,18.2093566 L2.81863479,18.2865505 C2.84104443,18.5539252 2.99537068,18.7907024 3.2272661,18.9134986 C3.45916152,19.0362949 3.73610108,19.0278872 3.96055792,18.8912365 L3.97306073,18.8912365 L4.01890435,18.8569281 L4.73573201,18.4881125 L6.87371218,17.3816659 C7.88967605,17.6821947 8.94233168,17.8309549 9.99941418,17.8233868 C11.3065802,17.8264312 12.6041925,17.5942101 13.8336086,17.1372184 C13.2166955,16.9276672 12.8236064,16.305775 12.8875628,15.6405135 C11.6160445,16.0611386 10.2721054,16.1985556 8.94501071,16.0436375 L8.73246297,16.0136176 C8.25331684,15.9492299 7.77962279,15.8474407 7.31547807,15.7091304 C7.06247326,15.6282055 6.78828106,15.6576606 6.55697438,15.7906129 L6.49862794,15.8206327 L4.73989962,16.8841938 L4.66488277,16.9313679 C4.62320674,16.9570992 4.60236873,16.9656763 4.58153072,16.9656763 C4.51641635,16.9610901 4.46660251,16.904135 4.46900544,16.8370197 L4.53568709,16.5582638 L4.61487154,16.2537765 L4.73989962,15.7520159 L4.88576571,15.194504 C4.98298982,14.8831676 4.87551712,14.5427525 4.61903914,14.3496591 C3.92783314,13.8216915 3.32768929,13.1780365 2.8436404,12.4455417 C1.60811419,10.5963423 1.44226366,8.20376769 2.41020972,6.19283186 C2.72694753,5.54097184 3.14370779,4.93628591 3.66049053,4.39163971 C4.99412338,2.97641731 6.86954458,2.07582124 8.94501071,1.84423939 C9.66244058,1.762797 10.386399,1.762797 11.1038289,1.84423939 C13.1667922,2.0886869 15.0338782,3.00214863 16.3591759,4.40879392 C16.871791,4.95344012 17.2885513,5.56670316 17.5969538,6.21856317 C18.0095465,7.08485082 18.2179266,8.00260111 18.2179266,8.94179415 C18.2179266,9.04043087 18.2095914,9.13906758 18.2054238,9.23341574 C18.7526161,8.88666428 19.4595796,8.97183273 19.9141409,9.43926627 L19.976655,9.51646022 C20.0836334,8.11575072 19.8216019,6.7112731 19.2181513,5.45091223 C18.8231606,4.61989496 18.3027033,3.85852888 17.6761383,3.1951335 C15.9702715,1.43050652 13.7228359,0.328734873 11.3163766,0.0773556713 C10.4607622,-0.0228332809 9.59702486,-0.0257096703 8.74079818,0.0687785659 Z" id="路径" fill="#0082EF"></path>
                </g>
            </g>
        </g>
    </g>
</svg>